<svg xmlns="http://www.w3.org/2000/svg" width="90" height="93" viewBox="0 0 90 93" xmlns:xlink="http://www.w3.org/1999/xlink">
  <defs>
    <circle id="b" cx="40" cy="40" r="40"/>
    <filter id="a" width="128.8%" height="132.5%" x="-14.4%" y="-8.1%" filterUnits="objectBoundingBox">
      <feOffset dy="8" in="SourceAlpha" result="shadowOffsetOuter1"/>
      <feGaussianBlur stdDeviation="2.5" in="shadowOffsetOuter1" result="shadowBlurOuter1"/>
      <feColorMatrix values="0 0 0 0 0.91372549 0 0 0 0 0.941176471 0 0 0 0 0.952941176 0 0 0 0.5 0" in="shadowBlurOuter1"/>
    </filter>
  </defs>
  <g fill="none" fill-rule="evenodd" transform="translate(5)">
    <use fill="black" filter="url(#a)" xlink:href="#b"/>
    <use fill="#FFFFFF" xlink:href="#b"/>
    <g stroke="#FF907D" transform="translate(21 21)">
      <path d="M33.1792203,21.361393 C33.5694225,19.9368945 33.7777778,18.4372237 33.7777778,16.8888889 C33.7777778,7.56141311 26.2163647,0 16.8888889,0 C7.56141311,0 0,7.56141311 0,16.8888889 M0.477901277,20.8946807 C2.27640019,28.2885373 8.94160414,33.7777778 16.8888889,33.7777778 C18.4372237,33.7777778 19.9368945,33.5694225 21.361393,33.1792203"/>
      <path d="M28.7430208,21.3622408 C28.7571004,21.3249497 28.771009,21.2875747 28.7847458,21.2501168 C29.2833861,19.8904086 29.5555556,18.421433 29.5555556,16.8888889 C29.5555556,13.8462536 28.4827692,11.0541809 26.6948104,8.87028493 M24.6899151,6.90877999 C22.5395527,5.22556022 19.8313918,4.22222222 16.8888889,4.22222222 C9.89328206,4.22222222 4.22222222,9.89328206 4.22222222,16.8888889 C4.22222222,23.8844957 9.89328206,29.5555556 16.8888889,29.5555556 C18.3902097,29.5555556 19.8305257,29.2943632 21.166875,28.8149406 C21.2322474,28.7914879 21.297371,28.7675129 21.3622408,28.7430208"/>
      <path d="M16.8888889,25.3333333 C21.5526268,25.3333333 25.3333333,21.5526268 25.3333333,16.8888889 C25.3333333,13.2293374 23.0054542,10.1134912 19.7497051,8.94135951 M16.8888889,8.44444444 C12.225151,8.44444444 8.44444444,12.225151 8.44444444,16.8888889 C8.44444444,20.5354049 10.7557691,23.6420821 13.9933167,24.8238188"/>
      <path d="M20.5327586,14.75462 C19.7994777,13.5053767 18.4421289,12.6666667 16.8888889,12.6666667 C14.5570199,12.6666667 12.6666667,14.5570199 12.6666667,16.8888889 C12.6666667,19.2207578 14.5570199,21.1111111 16.8888889,21.1111111 L16.8888889,21.1111111 C19.2207578,21.1111111 21.1111111,19.2207578 21.1111111,16.8888889"/>
      <g transform="translate(23.926 23.926)">
        <circle cx="7.037" cy="7.037" r="7.037"/>
        <polyline points="3.519 7.623 6.451 9.969 10.556 4.105"/>
      </g>
    </g>
  </g>
</svg>
