<svg xmlns="http://www.w3.org/2000/svg" width="65" height="80" viewBox="0 0 65 80"><path fill="#FFF" d="M32.19 0a3.285 3.285 0 0 0-3.28 3.28 3.285 3.285 0 0 0 3.28 3.282c1.81 0 3.281-1.473 3.281-3.281A3.285 3.285 0 0 0 32.191 0zm0 1.312a1.97 1.97 0 0 1 1.969 1.969 1.97 1.97 0 0 1-1.969 1.968 1.97 1.97 0 0 1-1.968-1.968 1.97 1.97 0 0 1 1.968-1.969zm-1.35 6.523a3.285 3.285 0 0 0-3.281 3.281v6.562c0 .362.294.656.656.656h7.874a.656.656 0 0 0 .656-.656v-6.562a3.285 3.285 0 0 0-3.28-3.28h-2.626zm0 1.313h2.624a1.97 1.97 0 0 1 1.969 1.968v5.906H28.87v-5.906a1.97 1.97 0 0 1 1.968-1.968zm7.955 1.802a.655.655 0 0 0-.41 1.217l15.748 9.091a.657.657 0 0 0 .897-.24.652.652 0 0 0-.24-.895L39.04 11.032a.656.656 0 0 0-.246-.082zm-13.287.043a.656.656 0 0 0-.246.085L9.514 20.169a.655.655 0 1 0 .656 1.136l15.748-9.092a.658.658 0 0 0-.41-1.22zM4.632 15.748a3.285 3.285 0 0 0-3.281 3.28 3.285 3.285 0 0 0 3.28 3.281c1.81 0 3.281-1.472 3.281-3.28a3.285 3.285 0 0 0-3.28-3.281zm55.117 0a3.285 3.285 0 0 0-3.281 3.28 3.285 3.285 0 0 0 3.28 3.281c1.81 0 3.282-1.472 3.282-3.28a3.285 3.285 0 0 0-3.281-3.281zM4.632 17.06A1.97 1.97 0 0 1 6.6 19.03a1.97 1.97 0 0 1-1.968 1.968 1.97 1.97 0 0 1-1.969-1.968 1.97 1.97 0 0 1 1.969-1.969zm55.117 0a1.97 1.97 0 0 1 1.968 1.969 1.97 1.97 0 0 1-1.968 1.968 1.97 1.97 0 0 1-1.969-1.968 1.97 1.97 0 0 1 1.969-1.969zm-21.55 2.292a.656.656 0 1 0 .065 1.31.656.656 0 0 0-.066-1.31zm-12.22.002a.656.656 0 1 0 .03 1.312.656.656 0 0 0-.03-1.312zm-2.275 1.305a.656.656 0 1 0 .028 1.312.656.656 0 0 0-.028-1.312zm16.773 0a.656.656 0 1 0 .066 1.31.656.656 0 0 0-.066-1.31zm-19.05 1.307a.656.656 0 1 0 .03 1.312.656.656 0 0 0-.03-1.312zm21.326 0a.656.656 0 1 0 .066 1.31.656.656 0 0 0-.066-1.31zM19.149 23.27a.656.656 0 1 0 .029 1.312.656.656 0 0 0-.029-1.312zm25.88 0a.656.656 0 1 0 .066 1.31.656.656 0 0 0-.066-1.31zm-41.748.312A3.285 3.285 0 0 0 0 26.864v6.562c0 .362.294.656.656.656H8.53a.656.656 0 0 0 .656-.656v-6.562a3.285 3.285 0 0 0-3.28-3.28H3.28zm55.117 0a3.285 3.285 0 0 0-3.28 3.281v6.562c0 .362.293.656.655.656h7.874a.656.656 0 0 0 .656-.656v-6.562a3.285 3.285 0 0 0-3.28-3.28h-2.625zm-11.09.992a.656.656 0 1 0 .063 1.311.656.656 0 0 0-.064-1.31zm-30.432.003a.656.656 0 0 0-.316.084.656.656 0 1 0 .897.244.656.656 0 0 0-.581-.328zm-13.595.318h2.624a1.97 1.97 0 0 1 1.969 1.968v5.905H1.312v-5.905a1.97 1.97 0 0 1 1.969-1.968zm55.117 0h2.625a1.97 1.97 0 0 1 1.968 1.968v5.905H56.43v-5.905a1.97 1.97 0 0 1 1.968-1.968zm-43.801.986a.656.656 0 1 0 .029 1.312.656.656 0 0 0-.029-1.312zm34.986 0a.656.656 0 1 0 .067 1.311.656.656 0 0 0-.067-1.31zm-38.346 1.243a.655.655 0 0 0-.41 1.22l14.435 8.336a.66.66 0 0 0 .897-.241.658.658 0 0 0-.24-.897L11.482 27.21a.656.656 0 0 0-.246-.085zm41.83 0a.65.65 0 0 0-.246.085l-14.436 8.335a.654.654 0 0 0 .328 1.223.647.647 0 0 0 .328-.087l14.436-8.335a.655.655 0 0 0 .24-.895.658.658 0 0 0-.65-.326zm-20.877.434a3.284 3.284 0 0 0-3.28 3.28 3.285 3.285 0 0 0 3.28 3.281c1.81 0 3.281-1.472 3.281-3.28a3.285 3.285 0 0 0-3.28-3.281zm0 1.312a1.97 1.97 0 0 1 1.969 1.968 1.97 1.97 0 0 1-1.969 1.969 1.97 1.97 0 0 1-1.968-1.969 1.97 1.97 0 0 1 1.968-1.968zm-20.997 1.597a.656.656 0 1 0 0 1.312.656.656 0 0 0 0-1.312zm41.994 0a.656.656 0 1 0 0 1.312.656.656 0 0 0 0-1.312zm-41.994 2.624a.656.656 0 1 0 0 1.313.656.656 0 0 0 0-1.313zm41.994 0a.656.656 0 1 0 0 1.313.656.656 0 0 0 0-1.313zM4.632 35.394a.656.656 0 0 0-.657.656v9.186a.656.656 0 0 0 1.313 0V36.05a.656.656 0 0 0-.656-.656zm26.207 0a3.285 3.285 0 0 0-3.28 3.28v6.562c0 .363.294.657.656.657h7.874a.656.656 0 0 0 .656-.657v-6.561a3.285 3.285 0 0 0-3.28-3.28h-2.626zm28.91 0a.656.656 0 0 0-.656.656v9.186a.656.656 0 0 0 1.312 0V36.05a.656.656 0 0 0-.656-.656zm-48.556.323a.656.656 0 1 0 0 1.312.656.656 0 0 0 0-1.312zm41.994 0a.656.656 0 1 0 0 1.312.656.656 0 0 0 0-1.312zm-22.348.99h2.625a1.97 1.97 0 0 1 1.969 1.968v5.905H28.87v-5.905a1.97 1.97 0 0 1 1.968-1.969zm-19.646 1.635a.656.656 0 1 0 0 1.312.656.656 0 0 0 0-1.312zm41.994 0a.656.656 0 1 0 0 1.312.656.656 0 0 0 0-1.312zm-41.994 2.624a.656.656 0 1 0 0 1.313.656.656 0 0 0 0-1.313zm41.994 0a.656.656 0 1 0 0 1.313.656.656 0 0 0 0-1.313zm-41.994 2.625a.656.656 0 1 0 0 1.312.656.656 0 0 0 0-1.312zm41.994 0a.656.656 0 1 0 0 1.312.656.656 0 0 0 0-1.312zm-41.994 2.625a.656.656 0 1 0 0 1.312.656.656 0 0 0 0-1.312zm41.994 0a.656.656 0 1 0 0 1.312.656.656 0 0 0 0-1.312zM4.632 47.243a3.284 3.284 0 0 0-3.281 3.281 3.285 3.285 0 0 0 3.28 3.28c1.81 0 3.281-1.471 3.281-3.28a3.285 3.285 0 0 0-3.28-3.28zm55.117 0a3.284 3.284 0 0 0-3.281 3.281 3.285 3.285 0 0 0 3.28 3.28c1.81 0 3.282-1.471 3.282-3.28a3.285 3.285 0 0 0-3.281-3.28zM32.19 48.517a.656.656 0 0 0-.656.656v9.092a.656.656 0 0 0 1.312 0v-9.092a.656.656 0 0 0-.656-.656zm-27.558.039A1.97 1.97 0 0 1 6.6 50.524a1.97 1.97 0 0 1-1.968 1.969 1.97 1.97 0 0 1-1.969-1.969 1.97 1.97 0 0 1 1.969-1.968zm55.117 0a1.97 1.97 0 0 1 1.968 1.968 1.97 1.97 0 0 1-1.968 1.969 1.97 1.97 0 0 1-1.969-1.969 1.97 1.97 0 0 1 1.969-1.968zm-48.556.284a.656.656 0 1 0 0 1.313.656.656 0 0 0 0-1.313zm41.994 0a.656.656 0 1 0 0 1.313.656.656 0 0 0 0-1.313zm-42.025 2.63a.656.656 0 1 0 .066 1.31.656.656 0 0 0-.066-1.31zm42.015 0a.656.656 0 1 0 .029 1.312.656.656 0 0 0-.029-1.312zm-2.276 1.302a.656.656 0 1 0 .029 1.312.656.656 0 0 0-.03-1.312zm-37.46.003a.656.656 0 1 0 .06 1.31.656.656 0 0 0-.06-1.31zm2.276 1.304a.656.656 0 1 0 .07 1.31.656.656 0 0 0-.07-1.31zm32.905.003a.656.656 0 0 0-.62.482.656.656 0 1 0 .62-.482zm-45.341.997A3.285 3.285 0 0 0 0 58.359v6.562c0 .362.294.656.656.656H8.53a.656.656 0 0 0 .656-.656V58.36a3.285 3.285 0 0 0-3.28-3.281H3.28zm55.117 0a3.285 3.285 0 0 0-3.28 3.28v6.562c0 .362.293.656.655.656h7.874a.656.656 0 0 0 .656-.656V58.36a3.285 3.285 0 0 0-3.28-3.281h-2.625zm-40.405.307a.656.656 0 1 0 .066 1.311.656.656 0 0 0-.066-1.31zm28.353 0a.656.656 0 1 0 .029 1.312.656.656 0 0 0-.029-1.312zM3.281 56.391h2.624a1.97 1.97 0 0 1 1.969 1.969v5.905H1.312V58.36a1.97 1.97 0 0 1 1.969-1.969zm55.117 0h2.625a1.97 1.97 0 0 1 1.968 1.969v5.905H56.43V58.36a1.97 1.97 0 0 1 1.968-1.969zm-38.126.3a.656.656 0 1 0 .064 1.31.656.656 0 0 0-.064-1.31zm23.796.003a.656.656 0 0 0-.313.084.656.656 0 1 0 .897.244.656.656 0 0 0-.584-.328zm-2.276 1.297a.656.656 0 1 0 .028 1.312.656.656 0 0 0-.028-1.312zm-19.244.007a.656.656 0 1 0 .069 1.31.656.656 0 0 0-.07-1.31zm-11.311.685a.658.658 0 0 0-.651.32.658.658 0 0 0 .24.897l14.436 8.335a.66.66 0 0 0 .897-.24.655.655 0 0 0-.24-.898l-14.436-8.332a.656.656 0 0 0-.246-.082zm41.83.043a.651.651 0 0 0-.246.082l-14.436 8.335a.657.657 0 0 0 .656 1.138l14.436-8.335a.658.658 0 0 0-.41-1.22zm-13.551.577a.656.656 0 1 0 .028 1.312.656.656 0 0 0-.028-1.312zm-14.692.002a.656.656 0 1 0 .066 1.311.656.656 0 0 0-.066-1.31zm12.416 1.302a.656.656 0 1 0 .028 1.313.656.656 0 0 0-.028-1.313zm-10.14.003a.656.656 0 1 0 .069 1.31.656.656 0 0 0-.07-1.31zm5.21 1.056a3.284 3.284 0 0 0-3.28 3.28 3.285 3.285 0 0 0 3.28 3.282c1.81 0 3.281-1.473 3.281-3.281a3.285 3.285 0 0 0-3.28-3.281zm0 1.312a1.97 1.97 0 0 1 1.97 1.969 1.97 1.97 0 0 1-1.97 1.968 1.97 1.97 0 0 1-1.968-1.968 1.97 1.97 0 0 1 1.969-1.969zm-1.35 6.523a3.285 3.285 0 0 0-3.28 3.281v6.562c0 .363.292.656.655.656h7.874a.656.656 0 0 0 .656-.656v-6.562a3.285 3.285 0 0 0-3.28-3.28H30.96zm0 1.313h2.625a1.97 1.97 0 0 1 1.968 1.968v5.906h-6.562v-5.906a1.97 1.97 0 0 1 1.969-1.968z"/></svg>