<svg xmlns="http://www.w3.org/2000/svg" width="49" height="56" viewBox="0 0 49 56" xmlns:xlink="http://www.w3.org/1999/xlink">
  <defs>
    <path id="a" d="M17.3429278,42.8170556 C20.3101111,44.8828333 23.8953944,46.1175556 27.7666667,46.1175556 C32.1399167,46.1175556 36.1482333,44.5421667 39.2637778,41.923 L41.58175,44.2606111 C37.8682889,47.4716667 33.0421778,49.4118333 27.7666667,49.4118333 C24.1775333,49.4118333 20.7963778,48.5138889 17.8321111,46.9283889 L15.4134167,49.3402778 C19.0402722,51.4795556 23.2614667,52.7057222 27.7666667,52.7057222 C33.9443611,52.7057222 39.5879944,50.4003889 43.8975444,46.5958889 L46.2119389,48.9296111 C41.3074278,53.3279444 34.8465056,56 27.7666667,56 C21.1867833,56 15.1414278,53.6919444 10.3833333,49.8353333 L17.3429278,42.8170556 Z M9.09486667,46.4757222 L7.95849444,47.6217778 C3.03617222,42.5693333 0,35.6424444 0,28 C0,12.5358333 12.4315722,0 27.7666667,0 C35.3452167,0 42.2146667,3.06172222 47.2249556,8.0255 L44.9149556,10.3549444 C40.4959333,5.98733333 34.4431889,3.29427778 27.7666667,3.29427778 C14.2357056,3.29427778 3.26666667,14.3554444 3.26666667,28 C3.26666667,33.5482778 5.08028889,38.6691667 8.14228333,42.7933333 L10.4907444,40.4514444 C7.9996,36.9428889 6.53333333,32.6441111 6.53333333,28 C6.53333333,16.1746667 16.0398389,6.58816667 27.7666667,6.58816667 C33.5411222,6.58816667 38.7771611,8.91255556 42.6049556,12.6843889 L36.5348667,18.8051111 L35.67445,19.6731111 L35.3534222,19.3744444 C33.3349333,17.5676667 30.67785,16.4706111 27.7666667,16.4706111 C21.4522,16.4706111 16.3333333,21.6323333 16.3333333,28 C16.3333333,34.3676667 21.4522,39.5293889 27.7666667,39.5293889 C30.3348111,39.5293889 32.7052056,38.6753889 34.6138722,37.2341667 L36.9422278,39.5818889 C34.4274389,41.6103333 31.2375389,42.8236667 27.7666667,42.8236667 C19.6480667,42.8236667 13.0666667,36.1868889 13.0666667,28 C13.0666667,19.8131111 19.6480667,13.1763333 27.7666667,13.1763333 C30.5555056,13.1763333 33.1629667,13.9595556 35.3845722,15.3198889 L37.7658944,12.9453333 C34.9074833,11.011 31.4677611,9.88244444 27.7666667,9.88244444 C17.8439333,9.88244444 9.8,17.9938889 9.8,28 C9.8,32.9132222 11.7395056,37.3698889 14.8885722,40.6334444 L9.09486667,46.4757222 Z M45.7333333,28 C45.7333333,24.0963333 44.5089556,20.4808333 42.4263389,17.5229444 L44.7641833,15.1655 C47.4241444,18.7417222 49,23.1851667 49,28 C49,33.32 47.0760889,38.1865556 43.8916333,41.9311667 L41.5736611,39.5935556 C44.1708556,36.4521111 45.7333333,32.41 45.7333333,28 Z"/>
  </defs>
  <g fill="none" fill-rule="evenodd">
    <mask id="b" fill="white">
      <use xlink:href="#a"/>
    </mask>
    <polygon fill="#FFFFFF" points="-3.889 59.889 52.889 59.889 52.889 -3.889 -3.889 -3.889" mask="url(#b)"/>
  </g>
</svg>
